<?xml version="1.0" encoding="UTF-8"?>
<svg xmlns="http://www.w3.org/2000/svg" id="Layer_1" data-name="Layer 1" viewBox="0 0 24 24">
  <path d="m9.863,16.221l-.363-4.221h1.042l.249,3.158,1.209-2.327,1.209,2.327.247-3.158h1.044l-.363,4.221c-.031.44-.337.779-.706.779-.244,0-.471-.151-.601-.4l-.831-1.6-.831,1.6c-.129.249-.356.4-.601.4-.368,0-.675-.339-.706-.779Zm14.137-11.721v18.5H0V4.5C0,2.57,1.57,1,3.5,1h17c1.93,0,3.5,1.57,3.5,3.5Zm-16,0c0,.828.672,1.5,1.5,1.5s1.5-.672,1.5-1.5-.672-1.5-1.5-1.5-1.5.672-1.5,1.5Zm-5,0c0,.828.672,1.5,1.5,1.5s1.5-.672,1.5-1.5-.672-1.5-1.5-1.5-1.5.672-1.5,1.5Zm18,3.5H3v12h18v-12Zm-15.932,9c.244,0,.471-.151.601-.4l.831-1.6.831,1.6c.129.249.356.4.601.4.368,0,.675-.339.706-.779l.363-4.221h-1.044l-.247,3.158-1.209-2.327-1.209,2.327-.249-3.158h-1.042l.363,4.221c.031.44.337.779.706.779Zm11,0c.244,0,.471-.151.601-.4l.831-1.6.831,1.6c.129.249.356.4.601.4.368,0,.675-.339.706-.779l.363-4.221h-1.044l-.247,3.158-1.209-2.327-1.209,2.327-.249-3.158h-1.042l.363,4.221c.031.44.337.779.706.779Z"/>
</svg>
